<?xml version="1.0" encoding="utf-8"?>
<svg viewBox="2.409 14.989 95.343 70.017" style="enable-background:new 0 0 100 100;" xmlns="http://www.w3.org/2000/svg">
  <g>
    <path d="M2.5,31.9c0-2.4,0.5-4.9,1.6-7.2c2.8-6.1,8.7-9.8,15.4-9.8h61c6.7,0,12.6,3.8,15.4,9.8c2.8,6.1,1.9,13-2.4,18.1L63,79    c-3.2,3.8-8,6-13,6s-9.8-2.2-13-6L6.5,42.8c0,0,0,0,0,0C3.9,39.7,2.5,35.8,2.5,31.9z M11.8,38.4L11.8,38.4L11.8,38.4z M83.8,31.9    c0-0.6-0.2-1.1-0.3-1.4c-0.3-0.6-1.1-1.9-2.9-1.9h-61c-1.9,0-2.7,1.3-2.9,1.9c-0.3,0.6-0.7,2,0.5,3.5l30.5,36.2    c0.8,1,1.9,1.2,2.5,1.2s1.6-0.2,2.5-1.2L83,34C83.6,33.3,83.8,32.6,83.8,31.9z"/>
  </g>
</svg>