<?xml version="1.0" encoding="utf-8"?>
<svg viewBox="2.409 14.989 95.182 70.117" style="enable-background:new 0 0 100 100;" xmlns="http://www.w3.org/2000/svg">
  <g>
    <path d="M97.5,68.1c0,2.4-0.5,4.9-1.6,7.2c-2.8,6.1-8.7,9.8-15.4,9.8h-61c-6.7,0-12.6-3.8-15.4-9.8c-2.8-6.1-1.9-13,2.4-18.1    L37,21c3.2-3.8,8-6,13-6s9.8,2.2,13,6l30.5,36.2c0,0,0,0,0,0C96.1,60.3,97.5,64.2,97.5,68.1z M88.2,61.6L88.2,61.6L88.2,61.6z     M16.2,68.1c0,0.6,0.2,1.1,0.3,1.4c0.3,0.6,1.1,1.9,2.9,1.9h61c1.9,0,2.7-1.3,2.9-1.9c0.3-0.6,0.7-2-0.5-3.5L52.5,29.8    c-0.8-1-1.9-1.2-2.5-1.2s-1.6,0.2-2.5,1.2L17,66C16.4,66.7,16.2,67.4,16.2,68.1z"/>
  </g>
</svg>